<?xml version="1.0" encoding="UTF-8" ?>
<svg version="1.1" width="16" height="16" xmlns="http://www.w3.org/2000/svg" shape-rendering="crispEdges">
<rect x="3" y="6" width="1" height="1" fill="#5FCDE4" />
<rect x="4" y="6" width="1" height="1" fill="#5B6EE1" />
<rect x="5" y="6" width="1" height="1" fill="#639BFF" />
<rect x="6" y="6" width="1" height="2" fill="#5FCDE4" />
<rect x="7" y="6" width="1" height="1" fill="#639BFF" />
<rect x="8" y="6" width="1" height="1" fill="#5B6EE1" />
<rect x="9" y="6" width="2" height="1" fill="#5FCDE4" />
<rect x="11" y="6" width="1" height="1" fill="#639BFF" />
<rect x="12" y="6" width="1" height="2" fill="#5FCDE4" />
<rect x="3" y="7" width="1" height="1" fill="#639BFF" />
<rect x="4" y="7" width="2" height="1" fill="#5FCDE4" />
<rect x="7" y="7" width="1" height="1" fill="#5FCDE4" />
<rect x="8" y="7" width="1" height="1" fill="#639BFF" />
<rect x="9" y="7" width="1" height="1" fill="#5FCDE4" />
<rect x="10" y="7" width="1" height="1" fill="#639BFF" />
<rect x="11" y="7" width="1" height="1" fill="#5B6EE1" />
</svg>